<svg width="4543" height="1504" viewBox="0 0 4543 1504" fill="none" xmlns="http://www.w3.org/2000/svg">
<path d="M2119.81 919.758C2105 973.57 2070.84 1017.71 2017.33 1052.17C1963.82 1086.33 1902.6 1103.41 1833.67 1103.41C1772.3 1103.41 1716.22 1088.6 1665.43 1058.97C1614.95 1029.35 1575.35 988.988 1546.63 937.897C1518.21 886.806 1504 830.576 1504 769.206C1504 722.953 1512.46 679.268 1529.39 638.154C1546.32 596.737 1569.3 561.215 1598.32 531.589C1627.34 501.962 1662.26 478.533 1703.07 461.301C1743.88 443.767 1787.42 435 1833.67 435C1901.09 435 1960.79 451.174 2012.79 483.521C2064.79 515.869 2098.35 557.588 2113.46 608.679L1973.34 675.338C1963.06 648.735 1945.38 627.573 1920.28 611.853C1895.49 596.133 1866.62 588.272 1833.67 588.272C1784.39 588.272 1744.04 605.353 1712.6 639.514C1681.46 673.676 1665.89 716.906 1665.89 769.206C1665.89 821.507 1681.46 864.888 1712.6 899.352C1744.04 933.513 1784.39 950.594 1833.67 950.594C1869.65 950.594 1900.18 941.978 1925.27 924.746C1950.67 907.212 1967.9 883.632 1976.97 854.005L2119.81 919.758Z" fill="white"/>
<path d="M2472.16 636.34H2621.35V1094.34H2472.16V1044.92C2460.06 1063.05 2443.74 1077.41 2423.18 1087.99C2402.93 1098.27 2381.16 1103.41 2357.88 1103.41C2299.84 1103.41 2254.34 1084.97 2221.39 1048.09C2188.44 1010.91 2171.96 959.512 2171.96 893.91V636.34H2320.7V868.516C2320.7 896.027 2327.35 917.34 2340.65 932.455C2354.25 947.571 2373 955.129 2396.88 955.129C2411.09 955.129 2425.15 951.199 2439.05 943.338C2453.26 935.176 2464.3 924.595 2472.16 911.596V636.34Z" fill="white"/>
<path d="M3008.16 956.036L3015.41 1087.99C2995.46 1097.67 2970.97 1102.51 2941.95 1102.51C2885.11 1102.51 2839.31 1085.58 2804.55 1051.72C2770.08 1017.56 2752.85 970.395 2752.85 910.235V779.636H2669.87V636.34H2752.85V519.345H2902.04V636.34H3009.97V779.636H2902.04V902.98C2902.04 920.514 2908.24 935.025 2920.64 946.513C2933.03 957.698 2948 963.291 2965.53 963.291C2980.04 963.291 2994.25 960.873 3008.16 956.036Z" fill="white"/>
<path d="M3358.23 627.271C3396.32 627.271 3431.39 638.003 3463.44 659.467C3495.48 680.629 3520.73 709.5 3539.17 746.08C3557.91 782.659 3567.28 822.565 3567.28 865.795C3567.28 908.724 3557.91 948.478 3539.17 985.058C3520.73 1021.64 3495.48 1050.51 3463.44 1071.67C3431.39 1092.83 3396.32 1103.41 3358.23 1103.41C3331.03 1103.41 3305.48 1097.97 3281.6 1087.09C3258.02 1076.2 3240.94 1062.15 3230.36 1044.92V1239H3081.62V636.34H3230.36V685.768C3241.24 668.536 3258.32 654.479 3281.6 643.596C3304.88 632.712 3330.42 627.271 3358.23 627.271ZM3325.13 962.384C3352.34 962.384 3375.16 953.164 3393.6 934.723C3412.35 915.979 3421.72 893.003 3421.72 865.795C3421.72 837.983 3412.35 815.007 3393.6 796.868C3375.16 778.427 3352.34 769.206 3325.13 769.206C3304.88 769.206 3286.28 773.892 3269.35 783.264C3252.73 792.333 3239.73 804.124 3230.36 818.635V911.596C3239.42 926.409 3252.42 938.653 3269.35 948.327C3286.28 957.698 3304.88 962.384 3325.13 962.384Z" fill="white"/>
<path d="M3779.96 444.069V1094.34H3631.22V444.069H3779.96Z" fill="white"/>
<path d="M4302.81 846.296C4302.81 864.133 4301 883.329 4297.37 903.887H3986.29C3999.29 952.861 4033 977.349 4087.41 977.349C4104.95 977.349 4121.87 973.57 4138.2 966.012C4154.52 958.454 4165.71 949.234 4171.76 938.35L4288.75 1010C4272.43 1039.62 4246.13 1062.6 4209.85 1078.93C4173.87 1095.25 4131.85 1103.41 4083.78 1103.41C4016.37 1103.41 3959.23 1080.29 3912.37 1034.03C3865.51 987.778 3842.08 931.095 3842.08 863.981C3842.08 797.17 3865.06 741.091 3911.01 695.745C3956.96 650.095 4013.65 627.271 4081.06 627.271C4143.04 627.271 4195.49 648.433 4238.42 690.756C4281.34 733.08 4302.81 784.927 4302.81 846.296ZM3986.29 810.019H4153.16C4150.14 791.88 4140.92 777.067 4125.5 765.579C4110.08 753.789 4092.4 747.893 4072.45 747.893C4026.8 747.893 3998.08 768.602 3986.29 810.019Z" fill="white"/>
<rect x="240" y="240" width="1024" height="1024" rx="200" fill="url(#paint0_linear_164_1601)"/>
<path fill-rule="evenodd" clip-rule="evenodd" d="M858.469 353C896.472 352.992 935.386 354.028 973.967 355.043C1010.35 356 1046.5 356.939 1082.47 357.053L1089.67 357.065L1090.91 357.08C1090.95 357.081 1090.99 357.083 1091.03 357.084C1092.03 357.112 1093.02 357.174 1094 357.262C1094.19 357.278 1094.37 357.292 1094.56 357.311C1094.64 357.319 1094.73 357.331 1094.82 357.34C1095.13 357.373 1095.45 357.408 1095.76 357.447C1095.89 357.464 1096.01 357.483 1096.14 357.5C1096.4 357.535 1096.66 357.57 1096.92 357.609C1097.12 357.639 1097.31 357.673 1097.51 357.705C1097.71 357.738 1097.91 357.769 1098.11 357.805C1098.23 357.825 1098.34 357.849 1098.45 357.869C1099.12 357.993 1099.78 358.128 1100.44 358.279C1100.62 358.322 1100.8 358.368 1100.99 358.412C1101.18 358.459 1101.37 358.504 1101.57 358.553C1101.75 358.599 1101.93 358.647 1102.11 358.695C1102.32 358.752 1102.53 358.809 1102.74 358.869C1102.93 358.922 1103.12 358.978 1103.3 359.033C1103.47 359.082 1103.63 359.129 1103.8 359.18C1104.02 359.249 1104.24 359.323 1104.47 359.395C1104.63 359.448 1104.8 359.5 1104.96 359.555C1105.12 359.607 1105.27 359.663 1105.43 359.717C1105.64 359.793 1105.86 359.868 1106.08 359.947C1106.21 359.996 1106.35 360.048 1106.48 360.098C1106.71 360.185 1106.95 360.269 1107.18 360.359C1107.29 360.404 1107.4 360.451 1107.52 360.496C1107.78 360.601 1108.04 360.707 1108.3 360.816C1108.38 360.852 1108.47 360.888 1108.55 360.924C1108.8 361.03 1109.04 361.136 1109.29 361.246C1109.47 361.328 1109.65 361.412 1109.83 361.496C1110 361.576 1110.17 361.656 1110.35 361.738C1110.48 361.804 1110.62 361.872 1110.76 361.94C1110.97 362.045 1111.19 362.15 1111.4 362.258C1111.55 362.335 1111.7 362.415 1111.86 362.494C1112.02 362.582 1112.19 362.668 1112.36 362.758C1112.58 362.877 1112.8 362.999 1113.02 363.121C1113.13 363.181 1113.23 363.241 1113.34 363.301C1113.54 363.418 1113.75 363.537 1113.95 363.656C1114.1 363.741 1114.24 363.826 1114.38 363.912C1114.56 364.016 1114.73 364.123 1114.9 364.229C1115.05 364.323 1115.2 364.416 1115.35 364.512C1115.51 364.612 1115.67 364.714 1115.82 364.816C1116 364.93 1116.17 365.044 1116.35 365.16C1116.49 365.254 1116.63 365.35 1116.77 365.445C1116.94 365.563 1117.11 365.683 1117.28 365.803C1117.44 365.912 1117.59 366.022 1117.74 366.133C1117.9 366.245 1118.05 366.357 1118.21 366.471C1118.35 366.575 1118.49 366.68 1118.63 366.785C1118.79 366.911 1118.96 367.037 1119.12 367.164C1119.27 367.279 1119.41 367.395 1119.56 367.512C1119.71 367.635 1119.87 367.759 1120.02 367.885C1120.15 367.993 1120.29 368.102 1120.42 368.211C1120.58 368.346 1120.74 368.482 1120.9 368.619C1121.02 368.727 1121.15 368.835 1121.27 368.943C1121.45 369.102 1121.63 369.261 1121.81 369.422C1121.91 369.509 1122.01 369.597 1122.1 369.686C1122.26 369.829 1122.41 369.974 1122.57 370.119C1122.73 370.27 1122.89 370.421 1123.05 370.574C1123.15 370.676 1123.26 370.778 1123.36 370.881C1123.52 371.035 1123.67 371.191 1123.83 371.348C1123.97 371.493 1124.11 371.639 1124.25 371.785C1124.34 371.881 1124.44 371.977 1124.53 372.074C1124.71 372.261 1124.88 372.45 1125.05 372.639C1125.16 372.755 1125.27 372.871 1125.37 372.988C1125.49 373.12 1125.61 373.253 1125.72 373.387C1125.86 373.541 1126 373.695 1126.13 373.852C1126.25 373.991 1126.37 374.132 1126.49 374.273C1126.62 374.431 1126.75 374.589 1126.88 374.748C1126.97 374.868 1127.07 374.987 1127.17 375.107C1127.31 375.282 1127.45 375.458 1127.58 375.635C1127.7 375.79 1127.82 375.945 1127.94 376.102C1128.05 376.241 1128.15 376.381 1128.26 376.522C1128.37 376.678 1128.49 376.836 1128.6 376.994C1128.71 377.148 1128.82 377.302 1128.93 377.457C1129.07 377.651 1129.2 377.847 1129.34 378.043C1129.4 378.14 1129.47 378.236 1129.54 378.334C1129.67 378.529 1129.8 378.725 1129.92 378.922C1130.02 379.077 1130.13 379.232 1130.22 379.389C1130.31 379.53 1130.4 379.672 1130.49 379.815C1130.61 380.004 1130.73 380.194 1130.84 380.385C1130.89 380.467 1130.94 380.55 1130.99 380.633C1131.14 380.884 1131.28 381.137 1131.43 381.391C1131.52 381.55 1131.61 381.709 1131.7 381.869C1131.77 382.009 1131.85 382.15 1131.93 382.291C1132.04 382.497 1132.15 382.703 1132.25 382.91C1132.33 383.064 1132.41 383.218 1132.49 383.373C1132.6 383.576 1132.7 383.78 1132.8 383.984C1132.85 384.103 1132.91 384.221 1132.97 384.34C1133.08 384.56 1133.18 384.78 1133.28 385.002C1133.35 385.148 1133.42 385.294 1133.48 385.441C1133.58 385.648 1133.66 385.856 1133.75 386.065C1133.82 386.208 1133.88 386.352 1133.94 386.496C1134.01 386.661 1134.08 386.827 1134.14 386.992C1134.23 387.197 1134.31 387.402 1134.39 387.607C1134.46 387.781 1134.52 387.955 1134.59 388.129C1134.66 388.312 1134.73 388.495 1134.79 388.68C1134.86 388.873 1134.93 389.067 1135 389.262C1135.06 389.435 1135.12 389.607 1135.18 389.781C1135.23 389.939 1135.28 390.098 1135.33 390.256C1135.41 390.485 1135.48 390.714 1135.55 390.945C1135.61 391.119 1135.66 391.293 1135.71 391.467C1135.76 391.638 1135.81 391.809 1135.86 391.981C1135.92 392.183 1135.97 392.387 1136.02 392.59C1136.08 392.798 1136.14 393.006 1136.19 393.215C1136.63 394.954 1136.97 396.73 1137.22 398.539C1137.24 398.693 1137.27 398.847 1137.29 399.002C1137.36 399.605 1137.42 400.211 1137.48 400.82C1137.6 402.219 1137.67 403.634 1137.67 405.065V474.639C1137.67 557.509 1070.88 619.836 993.902 626.561C884.851 636.087 811.037 662.216 765.535 696.916C735.382 719.912 716.279 747.634 707.44 780.639H977.715C1066.11 780.639 1137.67 852.301 1137.67 940.639V1103.06C1137.67 1106.23 1137.35 1109.33 1136.77 1112.33C1136.75 1112.43 1136.73 1112.54 1136.71 1112.64C1136.5 1113.69 1136.25 1114.73 1135.97 1115.75C1135.94 1115.86 1135.91 1115.97 1135.88 1116.08C1135.59 1117.12 1135.26 1118.15 1134.9 1119.15C1134.88 1119.22 1134.86 1119.28 1134.84 1119.34C1134.49 1120.31 1134.1 1121.27 1133.69 1122.21C1133.64 1122.34 1133.58 1122.47 1133.52 1122.6C1133.39 1122.89 1133.25 1123.19 1133.12 1123.48C1133.09 1123.53 1133.07 1123.57 1133.05 1123.62C1132.92 1123.9 1132.78 1124.19 1132.63 1124.47C1132.6 1124.54 1132.57 1124.6 1132.54 1124.66C1132.23 1125.28 1131.91 1125.89 1131.57 1126.49C1131.53 1126.55 1131.49 1126.62 1131.46 1126.69C1131.3 1126.96 1131.14 1127.24 1130.98 1127.51C1130.95 1127.56 1130.92 1127.61 1130.89 1127.66C1130.74 1127.92 1130.58 1128.18 1130.42 1128.43C1130.37 1128.52 1130.31 1128.6 1130.26 1128.69C1130.13 1128.89 1130 1129.09 1129.88 1129.28C1129.79 1129.42 1129.7 1129.56 1129.6 1129.7C1129.46 1129.91 1129.32 1130.11 1129.18 1130.32C1129.12 1130.41 1129.06 1130.49 1129 1130.58C1128.87 1130.76 1128.74 1130.94 1128.61 1131.13C1128.5 1131.28 1128.39 1131.43 1128.27 1131.59C1128.16 1131.74 1128.04 1131.9 1127.92 1132.06C1127.81 1132.2 1127.71 1132.34 1127.6 1132.48C1127.45 1132.67 1127.3 1132.87 1127.14 1133.06C1127.07 1133.14 1127.01 1133.23 1126.94 1133.31C1126.78 1133.51 1126.62 1133.7 1126.45 1133.9C1126.35 1134.01 1126.26 1134.13 1126.16 1134.25C1126 1134.43 1125.84 1134.61 1125.69 1134.79C1125.61 1134.88 1125.53 1134.96 1125.45 1135.05C1125.28 1135.24 1125.11 1135.43 1124.94 1135.62C1124.83 1135.73 1124.72 1135.85 1124.61 1135.97C1124.49 1136.1 1124.36 1136.23 1124.24 1136.36C1124.09 1136.51 1123.94 1136.66 1123.79 1136.82C1123.65 1136.95 1123.52 1137.09 1123.38 1137.23C1123.27 1137.34 1123.15 1137.45 1123.04 1137.56C1122.87 1137.72 1122.7 1137.89 1122.53 1138.05C1122.43 1138.14 1122.34 1138.22 1122.24 1138.31C1122.06 1138.48 1121.87 1138.66 1121.68 1138.82C1121.58 1138.91 1121.48 1139 1121.38 1139.09C1121.2 1139.25 1121.01 1139.41 1120.83 1139.57C1120.72 1139.66 1120.62 1139.75 1120.51 1139.84C1120.33 1139.99 1120.14 1140.15 1119.96 1140.3C1119.85 1140.38 1119.75 1140.47 1119.64 1140.55C1119.44 1140.71 1119.24 1140.87 1119.04 1141.03C1118.95 1141.09 1118.87 1141.16 1118.78 1141.22C1118.55 1141.4 1118.33 1141.57 1118.1 1141.74C1118.02 1141.79 1117.95 1141.85 1117.87 1141.9C1117.67 1142.05 1117.46 1142.2 1117.25 1142.35C1117.11 1142.45 1116.97 1142.55 1116.82 1142.64C1116.65 1142.76 1116.48 1142.88 1116.3 1143C1116.18 1143.08 1116.06 1143.16 1115.94 1143.24C1115.73 1143.38 1115.52 1143.51 1115.31 1143.64C1115.21 1143.71 1115.11 1143.77 1115.02 1143.83C1114.81 1143.96 1114.59 1144.09 1114.38 1144.22C1114.23 1144.31 1114.08 1144.4 1113.93 1144.49C1113.74 1144.6 1113.56 1144.7 1113.37 1144.81C1113.24 1144.88 1113.12 1144.95 1112.99 1145.02C1112.77 1145.14 1112.55 1145.26 1112.33 1145.38C1112.23 1145.44 1112.13 1145.49 1112.02 1145.55C1111.79 1145.67 1111.55 1145.79 1111.31 1145.91C1111.2 1145.97 1111.09 1146.02 1110.98 1146.08C1110.75 1146.2 1110.51 1146.31 1110.28 1146.42C1110.13 1146.49 1109.99 1146.56 1109.84 1146.63C1109.67 1146.71 1109.5 1146.79 1109.32 1146.87C1109.14 1146.95 1108.96 1147.03 1108.78 1147.1C1108.57 1147.2 1108.35 1147.29 1108.14 1147.38C1108.07 1147.41 1108 1147.44 1107.93 1147.46C1107.66 1147.57 1107.4 1147.68 1107.13 1147.79C1106.96 1147.86 1106.78 1147.92 1106.61 1147.99C1106.42 1148.06 1106.24 1148.13 1106.05 1148.19C1105.9 1148.25 1105.74 1148.3 1105.59 1148.36C1105.36 1148.44 1105.14 1148.52 1104.91 1148.59C1104.79 1148.63 1104.66 1148.67 1104.54 1148.71C1104.3 1148.79 1104.06 1148.87 1103.82 1148.94C1103.67 1148.99 1103.52 1149.03 1103.37 1149.08C1103.15 1149.14 1102.92 1149.21 1102.7 1149.27C1102.55 1149.31 1102.41 1149.35 1102.27 1149.39C1102.03 1149.45 1101.79 1149.52 1101.54 1149.58C1101.43 1149.61 1101.32 1149.64 1101.2 1149.67C1100.94 1149.73 1100.67 1149.8 1100.4 1149.86C1100.29 1149.88 1100.17 1149.91 1100.06 1149.93C1099.79 1149.99 1099.51 1150.05 1099.24 1150.11C1099.19 1150.12 1099.15 1150.13 1099.11 1150.13C1098.77 1150.2 1098.43 1150.27 1098.08 1150.33C1097.95 1150.35 1097.83 1150.37 1097.7 1150.39C1097.43 1150.44 1097.16 1150.48 1096.89 1150.52C1096.85 1150.53 1096.8 1150.54 1096.75 1150.54C1096.42 1150.59 1096.08 1150.64 1095.74 1150.68C1095.51 1150.71 1095.29 1150.73 1095.06 1150.76C1094.89 1150.78 1094.71 1150.8 1094.54 1150.82C1094.42 1150.83 1094.31 1150.84 1094.19 1150.85C1093.73 1150.89 1093.26 1150.93 1092.79 1150.96C1092.19 1151 1091.59 1151.03 1090.98 1151.04C1090.54 1151.06 1090.11 1151.06 1089.67 1151.06L1084.74 1151.05C981.21 1150.43 866.084 1130.26 774.512 1082.19C693.527 1039.67 627.076 972.598 609.955 876.639H506.676C428.797 876.639 358.581 812.018 367.82 727.344L368.369 722.461C380.183 620.307 410.347 542.472 458.063 485.014C506.802 426.324 570.16 393.338 639.19 375.107C707.375 357.1 782.868 353.017 858.469 353ZM708.518 876.639C723.491 927.89 762.394 967.402 819.135 997.19C881.632 1030 961.861 1048.29 1041.67 1053.5V940.639C1041.67 905.267 1013.03 876.639 977.715 876.639H708.518ZM858.49 449C785.082 449.016 719.616 453.159 663.703 467.926C608.634 482.47 564.751 506.81 531.918 546.346C499.337 585.579 474.075 644.07 463.736 733.477L463.254 737.756C460.991 758.495 478.516 780.639 506.676 780.639H609.377C619.84 717.139 652.453 662.424 707.32 620.58C773.003 570.489 867.222 541.262 985.549 530.926C1018.61 528.037 1041.67 502.225 1041.67 474.639V452.625C1018.01 452.228 994.515 451.617 971.443 451.01C932.596 449.988 894.991 448.992 858.49 449Z" fill="white"/>
<path d="M708.493 876.64C702.047 844.054 699.012 812.953 707.393 780.64H751.592C743.761 812.082 745.644 844.932 751.592 876.64H708.493Z" fill="url(#paint1_radial_164_1601)"/>
<path d="M565.366 876.64C558.921 844.054 556.646 812.953 565.026 780.64H608.754C600.922 812.082 603.145 844.932 609.094 876.64H565.366Z" fill="url(#paint2_radial_164_1601)"/>
<defs>
<linearGradient id="paint0_linear_164_1601" x1="240" y1="240" x2="1264" y2="1264" gradientUnits="userSpaceOnUse">
<stop stop-color="#6A14FF"/>
<stop offset="1" stop-color="#00A0FF"/>
</linearGradient>
<radialGradient id="paint1_radial_164_1601" cx="0" cy="0" r="1" gradientUnits="userSpaceOnUse" gradientTransform="translate(746.473 828.64) rotate(90) scale(104 42.357)">
<stop stop-color="white" stop-opacity="0"/>
<stop offset="1" stop-color="#E1E1E1"/>
</radialGradient>
<radialGradient id="paint2_radial_164_1601" cx="0" cy="0" r="1" gradientUnits="userSpaceOnUse" gradientTransform="translate(605.346 828.64) rotate(-90) scale(104 42.357)">
<stop stop-color="#E1E1E1"/>
<stop offset="1" stop-color="white" stop-opacity="0"/>
</radialGradient>
</defs>
</svg>
